<?xml version="1.0" encoding="UTF-8"?> <svg xmlns="http://www.w3.org/2000/svg" width="168" height="62" viewBox="0 0 168 62" fill="none"><path d="M0 47.918V40.551L15.9944 22.2313H0.130036V13.4301H29.6481V20.7971L13.5887 39.1167H30.1683V47.918H0Z" fill="black"></path><path d="M65.6045 43.3544C63.4373 45.1798 61.205 46.5054 58.9077 47.3312C56.6537 48.157 54.0964 48.5699 51.2356 48.5699C48.6349 48.5699 46.1859 48.1136 43.8886 47.2008C41.5913 46.2881 39.5974 45.0277 37.9069 43.4196C36.2598 41.8114 34.9378 39.9208 33.9408 37.7476C32.9872 35.531 32.5104 33.184 32.5104 30.7066C32.5104 28.2292 32.9656 25.904 33.8758 23.7308C34.8294 21.5142 36.1081 19.6018 37.7119 17.9937C39.3156 16.3856 41.2012 15.1251 43.3684 14.2124C45.579 13.2997 47.9413 12.8433 50.4554 12.8433C52.9694 12.8433 55.2884 13.3214 57.4123 14.2776C59.5362 15.2338 61.3567 16.5377 62.8738 18.1893C64.4342 19.8409 65.6479 21.8402 66.5148 24.1872C67.3817 26.4907 67.8151 28.9898 67.8151 31.6845V34.2923H43.3034C43.9969 35.9005 45.0806 37.2261 46.5543 38.2692C48.028 39.2688 49.7618 39.7687 51.7557 39.7687C53.1861 39.7687 54.4865 39.5514 55.6568 39.1167C56.8271 38.6386 57.824 37.9867 58.6476 37.1609L65.6045 43.3544ZM50.2603 21.449C48.5265 21.449 47.0311 21.9271 45.7741 22.8833C44.5171 23.8395 43.6285 25.1868 43.1083 26.9253H57.4773C56.9138 25.2737 55.9819 23.9481 54.6815 22.9485C53.4245 21.9488 51.9508 21.449 50.2603 21.449Z" fill="black"></path><path d="M72.7387 61.674V13.4301H83.1416V15.9727C84.4853 15.0165 85.9373 14.2776 87.4978 13.756C89.0582 13.2345 90.6836 12.9737 92.3741 12.9737C94.8014 12.9737 97.077 13.4301 99.201 14.3428C101.368 15.2555 103.232 16.5159 104.792 18.1241C106.396 19.7322 107.653 21.6229 108.564 23.796C109.474 25.9257 109.929 28.2292 109.929 30.7066C109.929 33.184 109.452 35.5093 108.499 37.6824C107.588 39.8121 106.331 41.681 104.727 43.2892C103.124 44.8538 101.217 46.0925 99.0059 47.0053C96.8386 47.918 94.5197 48.3743 92.049 48.3743C90.4452 48.3743 88.9065 48.1788 87.4327 47.7876C85.959 47.3964 84.5719 46.8314 83.2716 46.0925V61.674H72.7387ZM90.5536 21.9706C89.0799 21.9706 87.7361 22.2096 86.5225 22.6877C85.3088 23.1223 84.2252 23.796 83.2716 24.7087V36.7697C84.1818 37.5955 85.2655 38.2475 86.5225 38.7256C87.7795 39.2037 89.1232 39.4427 90.5536 39.4427C93.111 39.4427 95.2565 38.6169 96.9904 36.9653C98.7242 35.2702 99.5911 33.184 99.5911 30.7066C99.5911 28.2292 98.7025 26.1647 96.9253 24.5131C95.1915 22.8181 93.0676 21.9706 90.5536 21.9706Z" fill="black"></path><path d="M125.432 0V47.918H114.899V2.28181L125.432 0Z" fill="black"></path><path d="M141.733 48.4395V48.3743L128.534 13.4301H140.172L147.779 35.1399L156.622 13.4301H168L152.591 49.6782C150.684 54.1549 148.473 57.3277 145.959 59.1966C143.445 61.0655 140.129 62 136.011 62C135.188 62 134.386 61.9565 133.606 61.8696C132.825 61.8261 132.175 61.7392 131.655 61.6088V52.612C132.132 52.6989 132.609 52.7641 133.085 52.8076C133.606 52.851 134.212 52.8728 134.906 52.8728C136.553 52.8728 137.962 52.5033 139.132 51.7645C140.302 51.0256 141.169 49.9173 141.733 48.4395Z" fill="black"></path></svg> 